<svg width="200" height="61" viewBox="0 0 200 61" fill="none" xmlns="http://www.w3.org/2000/svg">
<path d="M101.094 19.1458C97.7958 19.1458 95.2552 20.8219 93.7416 23.6875C92.6604 20.6604 89.9802 19.1458 86.4656 19.1458C83.6 19.1458 81.3843 20.4979 79.9239 22.9302V19.8177H73.9458V46.1219H79.9239V31.4719C79.9239 26.8771 81.7625 24.4979 84.7354 24.4979C87.4927 24.4979 88.7354 26.2063 88.7354 29.6656V46.1219H94.6062L94.4437 30.6063C94.4437 26.174 96.4437 24.4969 99.2552 24.4969C101.904 24.4969 103.148 26.2052 103.148 29.6646V46.1208H109.18L109.072 28.0104C109.072 22.1198 106.067 19.1458 101.094 19.1458Z" fill="#1A1A1A"/>
<path d="M124.281 19.2229C118.351 19.2229 113.338 22.8344 113.661 29.3573L119.213 29.7886C118.944 26.3927 120.831 24.2354 124.443 24.2354C127.677 24.2354 129.563 25.9604 129.563 28.2792V29.249L123.526 30.2729C116.896 31.3511 113.607 34.1542 113.607 39.1677C113.607 43.049 116.572 46.9302 122.502 46.9302C125.791 46.9302 128.324 45.3136 129.563 43.1031V46.1219H135.116V28.6021C135.117 22.8344 131.234 19.2229 124.281 19.2229ZM129.563 35.125C129.563 39.0063 127.137 41.5938 123.633 41.5938C120.993 41.5938 119.212 40.3542 119.212 38.4667C119.212 36.3104 121.153 35.3396 124.387 34.7469L129.562 33.8844V35.125H129.563Z" fill="#1A1A1A"/>
<path d="M140.335 10.4104V46.1219H146.265V10.4104H140.335Z" fill="#1A1A1A"/>
<path d="M189.165 19.2229C183.234 19.2229 178.222 22.8344 178.545 29.3573L184.097 29.7886C183.827 26.3927 185.714 24.2354 189.326 24.2354C192.56 24.2354 194.447 25.9604 194.447 28.2792V29.249L188.409 30.2729C181.778 31.3511 178.491 34.1542 178.491 39.1677C178.491 43.049 181.455 46.9302 187.385 46.9302C190.674 46.9302 193.207 45.3136 194.448 43.1031V46.1219H200V28.6021C200 22.8344 196.119 19.2229 189.165 19.2229ZM194.448 35.125C194.448 39.0063 192.022 41.5938 188.518 41.5938C185.876 41.5938 184.097 40.3542 184.097 38.4667C184.097 36.3104 186.037 35.3396 189.272 34.7469L194.447 33.8844V35.125H194.448Z" fill="#1A1A1A"/>
<path d="M167.304 43.55H157.98C156.372 43.55 155.396 42.6771 155.396 41.6302C155.396 40.4083 156.315 39.6521 157.808 39.6521H163.455C169.027 39.6521 173.622 35.2313 173.622 29.7052C173.622 27.5531 172.991 25.8073 171.669 24.1792L176.597 24.4188L176.609 19.8156H170.464C168.167 19.8156 166.616 19.5406 164.977 19.4136C164.177 19.2875 163.333 19.2219 162.453 19.2219C155.226 19.2219 151.278 23.2334 151.278 29.4719C151.278 32.3802 152.542 34.7656 154.668 36.7438C151.853 37.2094 149.9 39.5365 149.9 41.8042C149.9 43.4906 150.647 45.1198 152.255 46.1084C149.9 47.7375 148.867 49.9479 148.867 52.7396C148.867 57.5677 152.6 61 159.55 61H165.926C172.13 61 176.725 57.4511 176.725 51.925C176.724 46.9823 173.048 43.55 167.304 43.55ZM162.422 23.9886C166.351 23.9886 167.706 26.6063 167.706 29.5302C167.706 32.4542 166.217 35.0719 162.422 35.0719C158.627 35.0719 157.137 32.4542 157.137 29.5302C157.137 26.6073 158.493 23.9886 162.422 23.9886ZM166.212 56.1146H159.607C156.506 56.1146 154.954 54.4281 154.954 52.275C154.954 50.5875 155.644 48.3771 159.32 48.3771H166.327C169.027 48.3771 170.693 49.8313 170.693 52.0417C170.693 54.6021 168.912 56.1146 166.212 56.1146Z" fill="#1A1A1A"/>
<path d="M36.3104 47.5417L36.3104 28.3938C36.3104 23.6563 32.4698 19.8156 27.7323 19.8156L8.58334 19.8156C3.84584 19.8156 0.00521834 23.6563 0.00521813 28.3938L0.00521729 47.5427C0.00521709 52.2802 3.84584 56.1209 8.58334 56.1209L27.7323 56.1209C32.4698 56.1198 36.3104 52.2792 36.3104 47.5417Z" fill="#39BFAD"/>
<path d="M36.3104 10.4052C36.3104 5.20832 32.0969 0.994781 26.899 0.994781L9.41563 0.99478C4.21876 0.99478 0.00521832 5.20832 0.00521809 10.4052C0.00521787 15.6021 4.21876 19.8156 9.41563 19.8156L26.899 19.8156C32.0969 19.8156 36.3104 15.6031 36.3104 10.4052Z" fill="#E26BA7"/>
<path d="M55.1208 27.8885L55.1208 10.4052C55.1208 5.20832 50.9073 0.994781 45.7104 0.994781C40.5136 0.994781 36.3 5.20832 36.3 10.4052L36.3 27.8885C36.3 33.0854 40.5136 37.2989 45.7104 37.2989C50.9073 37.2989 55.1208 33.0854 55.1208 27.8885Z" fill="#39BFAD"/>
<path d="M55.1083 47.2041C55.3917 41.6229 50.8073 37.0385 45.226 37.3218C40.4469 37.5635 36.5646 41.4468 36.3219 46.2249C36.0396 51.8062 40.6239 56.3906 46.2042 56.1072C50.9833 55.8656 54.8667 51.9822 55.1083 47.2041Z" fill="#E26BA7"/>
</svg>
