<svg width="100" height="31" viewBox="0 0 100 31" fill="none" xmlns="http://www.w3.org/2000/svg">
<path d="M50.5469 10.073C48.898 10.073 47.6276 10.911 46.8709 12.3438C46.3303 10.8303 44.9901 10.073 43.2329 10.073C41.8 10.073 40.6922 10.749 39.962 11.9652V10.4089H36.973V23.561H39.962V16.236C39.962 13.9386 40.8813 12.749 42.3678 12.749C43.7464 12.749 44.3678 13.6032 44.3678 15.3329V23.561H47.3032L47.2219 15.8032C47.2219 13.5871 48.2219 12.7485 49.6276 12.7485C50.9521 12.7485 51.574 13.6027 51.574 15.3324V23.5605H54.5901L54.536 14.5053C54.536 11.56 53.0334 10.073 50.5469 10.073Z" fill="#F9F9F9"/>
<path d="M62.1406 10.1116C59.1755 10.1116 56.6693 11.9173 56.8307 15.1788L59.6068 15.3944C59.4719 13.6965 60.4156 12.6178 62.2214 12.6178C63.8385 12.6178 64.7818 13.4803 64.7818 14.6397V15.1246L61.763 15.6366C58.4479 16.1756 56.8036 17.5772 56.8036 20.084C56.8036 22.0246 58.2859 23.9652 61.251 23.9652C62.8953 23.9652 64.162 23.1569 64.7818 22.0517V23.5611H67.5578V14.8012C67.5583 11.9173 65.6172 10.1116 62.1406 10.1116ZM64.7818 18.0626C64.7818 20.0032 63.5688 21.297 61.8167 21.297C60.4964 21.297 59.6063 20.6772 59.6063 19.7334C59.6063 18.6553 60.5766 18.1699 62.1938 17.8736L64.7813 17.4423V18.0626H64.7818Z" fill="#F9F9F9"/>
<path d="M70.1677 5.70532V23.5611H73.1323V5.70532H70.1677Z" fill="#F9F9F9"/>
<path d="M94.5823 10.1116C91.6172 10.1116 89.1109 11.9173 89.2724 15.1788L92.0484 15.3944C91.9135 13.6965 92.8568 12.6178 94.663 12.6178C96.2802 12.6178 97.2234 13.4803 97.2234 14.6397V15.1246L94.2047 15.6366C90.889 16.1756 89.2453 17.5772 89.2453 20.084C89.2453 22.0246 90.7276 23.9652 93.6927 23.9652C95.337 23.9652 96.6036 23.1569 97.2239 22.0517V23.5611H100V14.8012C100 11.9173 98.0594 10.1116 94.5823 10.1116ZM97.2239 18.0626C97.2239 20.0032 96.0109 21.297 94.2588 21.297C92.938 21.297 92.0484 20.6772 92.0484 19.7334C92.0484 18.6553 93.0187 18.1699 94.6359 17.8736L97.2234 17.4423V18.0626H97.2239Z" fill="#F9F9F9"/>
<path d="M83.6521 22.2749H78.9901C78.186 22.2749 77.6979 21.8384 77.6979 21.315C77.6979 20.7041 78.1573 20.3259 78.9042 20.3259H81.7276C84.5136 20.3259 86.811 18.1155 86.811 15.3525C86.811 14.2765 86.4953 13.4035 85.8344 12.5895L88.2985 12.7093L88.3047 10.4077H85.2318C84.0833 10.4077 83.3078 10.2702 82.4886 10.2067C82.0886 10.1437 81.6667 10.1108 81.2266 10.1108C77.613 10.1108 75.6391 12.1166 75.6391 15.2358C75.6391 16.69 76.2709 17.8827 77.3339 18.8718C75.9266 19.1046 74.95 20.2681 74.95 21.402C74.95 22.2452 75.3235 23.0598 76.1276 23.5541C74.95 24.3687 74.4333 25.4739 74.4333 26.8697C74.4333 29.2838 76.3 30.9999 79.775 30.9999H82.963C86.0651 30.9999 88.3625 29.2254 88.3625 26.4624C88.362 23.991 86.524 22.2749 83.6521 22.2749ZM81.211 12.4942C83.1755 12.4942 83.8531 13.803 83.8531 15.265C83.8531 16.727 83.1084 18.0358 81.211 18.0358C79.3136 18.0358 78.5688 16.727 78.5688 15.265C78.5688 13.8035 79.2464 12.4942 81.211 12.4942ZM83.1063 28.5572H79.8037C78.2531 28.5572 77.4771 27.714 77.4771 26.6374C77.4771 25.7937 77.8219 24.6884 79.6599 24.6884H83.1636C84.5136 24.6884 85.3464 25.4155 85.3464 26.5207C85.3464 27.8009 84.4563 28.5572 83.1063 28.5572Z" fill="#F9F9F9"/>
<path d="M18.1552 24.271L18.1552 14.697C18.1552 12.3283 16.2348 10.408 13.8661 10.408L4.29161 10.408C1.92286 10.408 0.00254813 12.3283 0.00254803 14.697L0.00254761 24.2715C0.00254751 26.6403 1.92286 28.5606 4.29161 28.5606L13.8661 28.5606C16.2348 28.56 18.1552 26.6397 18.1552 24.271Z" fill="#39BFAD"/>
<path d="M18.1552 5.70277C18.1552 3.10433 16.0484 0.997559 13.4494 0.997558L4.70776 0.997558C2.10932 0.997558 0.00254813 3.10433 0.00254801 5.70277C0.0025479 8.3012 2.10932 10.408 4.70775 10.408L13.4494 10.408C16.0484 10.408 18.1552 8.30173 18.1552 5.70277Z" fill="#E26BA7"/>
<path d="M27.5604 14.4444L27.5604 5.70277C27.5604 3.10433 25.4537 0.997559 22.8552 0.997558C20.2568 0.997558 18.15 3.10433 18.15 5.70277L18.15 14.4444C18.15 17.0429 20.2568 19.1496 22.8552 19.1496C25.4537 19.1496 27.5604 17.0429 27.5604 14.4444Z" fill="#39BFAD"/>
<path d="M27.5542 24.1022C27.6959 21.3115 25.4037 19.0194 22.613 19.161C20.2235 19.2819 18.2823 21.2235 18.161 23.6126C18.0198 26.4032 20.312 28.6954 23.1021 28.5537C25.4917 28.4329 27.4334 26.4912 27.5542 24.1022Z" fill="#E26BA7"/>
</svg>
